<?xml version="1.0" encoding="UTF-8"?> <svg xmlns="http://www.w3.org/2000/svg" xml:space="preserve" width="262.8" height="64.9"><path fill="#FFFFFF" d="M151.8 15.8h-2.7v8.6h2.7c2.6 0 4.2-1.7 4.2-4.3 0-2.7-1.6-4.3-4.2-4.3zm.1 6.8h-1v-5.1h1c1.5 0 2.3.9 2.3 2.6 0 1.6-.8 2.5-2.3 2.5zm-12 1.8h5.8v-1.7h-4V21h3v-1.7h-3v-1.7h4v-1.7h-5.8v8.5zm-46.3-2.9-2.2-5.8h-1.6v8.6h1.8v-3.5l1.3 3.5h1.5l1.3-3.5v3.5h1.8v-8.6h-1.6l-2.3 5.8zm10.3-5.8c-2.2 0-3.7 1.7-3.7 4.4s1.4 4.4 3.7 4.4c2.2 0 3.7-1.7 3.7-4.4-.1-2.7-1.5-4.4-3.7-4.4zm0 7c-1.6 0-1.8-1.7-1.8-2.7 0-.8.2-2.6 1.8-2.6s1.8 1.7 1.8 2.6c0 .9-.2 2.7-1.8 2.7zm11.3-3.6h-3v-3.3h-1.8v8.6h1.8v-3.5h3v3.5h1.8v-8.6h-1.8v3.3zm6.9-3.3-3 8.6h1.9l.7-2.2h2.3l.7 2.2h1.9l-3-8.6h-1.5zm.2 4.7.6-1.8.6 1.8h-1.2zm10.3 1-2.2-5.8h-1.6v8.6h1.8v-3.5l1.3 3.5h1.5l1.3-3.5v3.5h1.8v-8.6h-1.6l-2.3 5.8zm37-3.2c0-1.5-1.1-2.5-2.7-2.5h-3.5v8.6h3.7c1.9 0 2.8-1.3 2.8-2.6 0-.8-.3-1.4-.8-1.9.2-.4.5-1 .5-1.6zm-4.5-.8h1.7c.5 0 1 .1 1 .8 0 .7-.6.8-1 .8h-1.7v-1.6zm1.7 5.1h-1.7v-1.8h1.7c1 0 1.2.5 1.2.9-.1.4-.2.9-1.2.9zm5.7 1.8h1.8v-8.6h-1.8v8.6zm9.8-3.7-3-5h-1.6v8.6h1.8v-5l3 5h1.6v-8.6h-1.8v5zm8.9-3.2h3.6l-3.6 5.6v1.3h5.9v-1.7h-3.5l3.6-5.6v-1.3h-6v1.7zm10.5-1.7-3 8.6h1.9l.7-2.2h2.3l.7 2.2h1.9l-3-8.6h-1.5zm.2 4.7.6-1.8.6 1.8h-1.2zm8.3-1.4-1.7-3.3h-2l2.8 5.3v3.3h1.8v-3.3l2.8-5.3h-2l-1.7 3.3zm5.6 5.3h5.8v-1.7h-4V21h3v-1.7h-3v-1.7h4v-1.7h-5.8v8.5zm11.3-8.6h-2.7v8.6h2.7c2.6 0 4.2-1.7 4.2-4.3 0-2.7-1.6-4.3-4.2-4.3zm.1 6.8h-1v-5.1h1c1.5 0 2.3.9 2.3 2.6 0 1.6-.8 2.5-2.3 2.5zm-18.4 25.7H207v8.6h5v-1.7h-3.3v-6.9zM118.9 32l-1.9 5.7-1.9-5.7h-1.9l3 8.6h1.6l3-8.6h-1.9zm-24.3 5.4c0 1.2-.4 1.6-1.6 1.6-1.1 0-1.6-.5-1.6-1.6V32h-1.8v5.4c0 2 1.3 3.3 3.3 3.3 2.1 0 3.3-1.3 3.3-3.3V32h-1.8v5.4zm9.6-.4-3-5h-1.6v8.6h1.8v-5l3 5h1.6V32h-1.8v5zm6.9-5h-1.8v8.6h1.8V32zm17.7 6.9h-4v-1.7h3v-1.7h-3v-1.7h4V32H123v8.6h5.8v-1.7zm4.6-1.3h1.5l1.5 3.1h2l-1.6-3.4c.9-.5 1.3-1.3 1.3-2.4 0-1.3-.8-2.8-3.1-2.8h-3.3v8.6h1.8v-3.1zm0-3.9h1.6c.8 0 1.2.3 1.2 1.1 0 .7-.4 1.1-1.2 1.1h-1.6v-2.2zm11 1.8-1.1-.3c-.9-.2-1-.5-1-.8 0-.7.7-.8 1.1-.8.8 0 1.3.4 1.3 1v.4h1.8v-.5c0-1.6-1.2-2.7-3-2.7s-3 1-3 2.6c0 1.2.8 2.1 2.3 2.5l1.1.3c.8.2.9.5.9.9 0 .5-.5.9-1.3.9-1 0-1.5-.4-1.5-1.2v-.5h-1.8v.5c0 1.8 1.3 2.9 3.2 2.9 1.8 0 3.1-1.1 3.1-2.6.1-1.3-.6-2.2-2.1-2.6zm6.7-3.5h-1.8v8.6h1.8V32zm6.4 8.6v-6.9h2.3V32h-6.3v1.7h2.3v6.9h1.7zm7-5.3-1.7-3.3h-2l2.8 5.3v3.3h1.8v-3.3l2.8-5.3h-2l-1.7 3.3zm13.1-3.4c-2.2 0-3.7 1.7-3.7 4.4s1.4 4.4 3.7 4.4c2.2 0 3.7-1.7 3.7-4.4s-1.5-4.4-3.7-4.4zm0 7.1c-1.6 0-1.8-1.7-1.8-2.7 0-.8.2-2.6 1.8-2.6s1.8 1.7 1.8 2.6c0 .8-.2 2.7-1.8 2.7zm6.5 1.6h1.8v-3.1h3.6v-1.7h-3.6v-2.1h3.9V32h-5.7v8.6zm-92.5 7.7-3 8.6h1.9l.7-2.2h2.3l.7 2.2h1.9l-3-8.6h-1.5zm.2 4.7.6-1.8.6 1.8h-1.2zm13-1.9c0-1.3-.8-2.8-3.1-2.8h-3.3v8.6h1.8v-3h1.5l1.5 3h2l-1.6-3.4c.7-.5 1.2-1.3 1.2-2.4zm-3.1 1h-1.6V50h1.6c.8 0 1.2.3 1.2 1.1.1.7-.3 1-1.2 1zm4.8-2.1h2.3v6.9h1.8V50h2.3v-1.7h-6.3V50zm8.7 6.9h1.8v-8.6h-1.8v8.6zm5.1 0h1.8v-3.1h3.6v-1.7h-3.6V50h3.9v-1.7h-5.7v8.6zm8.3 0h1.8v-8.6h-1.8v8.6zm8.3-7c.9 0 1.5.5 1.6 1.4v.4h1.8v-.5c-.1-1.8-1.5-3.1-3.4-3.1-2.2 0-3.7 1.7-3.7 4.4s1.4 4.4 3.7 4.4c1.9 0 3.3-1.2 3.4-3.1v-.5h-1.8v.4c-.1.9-.7 1.4-1.6 1.4-1.6 0-1.9-1.7-1.9-2.7.1-.8.3-2.5 1.9-2.5zm6.1 7h1.8v-8.6H143v8.6zm6.9-8.6-3 8.6h1.9l.7-2.2h2.3l.7 2.2h1.9l-3-8.6h-1.5zm.2 4.7.6-1.8.6 1.8h-1.2zm8.3-4.7h-1.8v8.6h5v-1.7h-3.3v-6.9zm10.2 8.6h1.8v-8.6h-1.8v8.6zm9.7-3.7-3-5h-1.6v8.6h1.8v-5l3 5h1.6v-8.6h-1.8v5zm4.2-3.2h2.3v6.9h1.8V50h2.3v-1.7h-6.3V50zm8.7 6.9h5.8v-1.7h-4v-1.7h3v-1.7h-3V50h4v-1.7h-5.8v8.6zm10.4-8.6h-1.8v8.6h5v-1.7h-3.3v-6.9zm12.8 8.6h1.8v-8.6h-1.8v8.6zm7.8-3.1h2.3c-.1.4-.2.8-.4 1-.3.3-.7.4-1.2.4-1.5 0-1.9-1.4-1.9-2.6 0-1.2.3-2.7 1.9-2.7.9 0 1.4.5 1.6 1.3v.2h1.8v-.2c-.1-1.8-1.6-3-3.4-3-2.2 0-3.7 1.7-3.7 4.5 0 2.7 1.4 4.4 3.7 4.4 2.1 0 3.5-1.5 3.5-3.7v-1.3h-4.1v1.7zm7.1 3.1h5.8v-1.7h-4v-1.7h3v-1.7h-3V50h4v-1.7h-5.8v8.6zm13.3-3.7-3-5H238v8.6h1.8v-5l3 5h1.6v-8.6h-1.8v5zm8.3-3.3c.9 0 1.5.5 1.6 1.4v.4h1.8v-.5c-.1-1.8-1.5-3.1-3.4-3.1-2.2 0-3.7 1.7-3.7 4.4s1.4 4.4 3.7 4.4c1.9 0 3.3-1.2 3.4-3.1v-.5h-1.8v.4c-.1.9-.7 1.4-1.6 1.4-1.6 0-1.9-1.7-1.9-2.7 0-.8.3-2.5 1.9-2.5zm11.9.1v-1.7H257v8.6h5.8v-1.8h-4v-1.7h3v-1.7h-3V50h4zM19.1 30.3c-2.5 0-4.5 2.3-4.5 5.1 0 1.1.3 2.2.9 3l-2.1 2.4c-.7-.6-1.6-.9-2.6-.8-.6 0-1.2.3-1.8.7l-2.5-3c.3-.7.5-1.5.5-2.4 0-.9-.2-1.7-.5-2.4l2.4-3c.5.4 1.2.7 1.9.7 2.3.2 4.2-1.8 4.4-4.3.2-2.5-1.5-4.8-3.7-4.9-.7-.1-1.3.1-1.9.4l-1.4-2.4c.1-.2.3-.3.4-.5 1.2-1.8 1.1-3.8-.1-4.4-.3-.1-.5-.2-.8-.2-1.1 0-2.6.9-3.5 2.3-1.2 1.8-1.1 3.8.1 4.4.8.4 1.9.1 2.8-.6l1.3 2.3c-.7.8-1.2 1.8-1.3 3-.1 1.2.2 2.3.8 3.1l-2.3 2.8c-.6-.5-1.3-.8-2-.8-1.9 0-3.5 2-3.5 4.5s1.6 4.5 3.5 4.5c.8 0 1.5-.3 2-.9L8 41.8c-.6.9-.9 1.9-.8 3.1.2 2.5 2.2 4.5 4.4 4.3 2.3-.2 3.9-2.4 3.7-4.9-.1-.9-.4-1.7-.8-2.4l2-2.4c.7.6 1.6.9 2.5.9 2.5 0 4.5-2.3 4.5-5.1.1-2.8-1.9-5-4.4-5zM15.4 11c1.1-1 1.7-2.4 1.7-3.4L20 5.5c.8.3 1.9.2 3.1-.3 1.9-.9 3.2-2.7 2.8-4C25.6.4 24.8 0 23.7 0c-.6 0-1.3.2-2.1.5-1.9.9-3.2 2.6-2.8 3.9l-2.5 1.8c-1-.8-2.9-.4-4.4 1-1.6 1.5-2.2 3.6-1.2 4.6 1 1.1 3.1.7 4.7-.8zm17.2 11.3 3.1-2.8c.8.5 1.8.8 2.9.8 1.1 0 2.1-.3 2.9-.8l3.1 2.8c-1.2 1.9-1 4.6.7 6.3 1.7 1.7 4.3 2 6.3.7l2.7 3.1c-.5.8-.8 1.8-.8 2.9 0 2.8 2 5.1 4.5 5.1s4.5-2.3 4.5-5.1-2-5.1-4.5-5.1c-1 0-1.9.4-2.6 1l-2.6-3c1.6-2 1.5-4.9-.4-6.7-1.9-1.9-4.7-2-6.7-.4l-3-2.7c.6-.7 1-1.6 1-2.6 0-2.5-2.3-4.5-5.1-4.5s-5.1 2-5.1 4.5c0 1 .4 1.9 1 2.6l-3 2.7c-1.8-1.5-4.3-1.6-6.1-.3l-1.9-2c1.1-1.4 1.3-3.3.6-4.7l2.6-2.2c1.5 1.2 3.9 1.1 5.7-.4 1.9-1.7 2.3-4.4.8-6.1-.8-.9-1.8-1.3-3-1.3-1.1 0-2.3.4-3.2 1.2-1.7 1.5-2.2 3.8-1.3 5.4L23.1 13c-1.6-1.3-4.2-1.1-5.9.7-1.8 1.8-1.9 4.6-.3 6.2 1.4 1.4 3.7 1.4 5.5.1l1.9 2c-1.5 2-1.4 4.8.5 6.7 2 2 5.2 2 7.2 0 1.7-1.7 1.9-4.4.6-6.4zm39.8 27.2c-.7-.3-1.7-.1-2.6.5l-1-1.9c.8-.8 1.3-1.9 1.4-3.2.2-2.5-1.5-4.8-3.7-4.9h-.3c-2.1 0-4 1.9-4.2 4.3-.1 1 .2 2 .6 2.8l-3 3.1c-1.6-1-4-.6-5.5 1-1.8 1.8-1.9 4.6-.3 6.2 1.3 1.3 3.4 1.4 5.1.3l2.2 2.8c-1.3 1.4-1.7 3.1-1 3.9.3.3.7.5 1.1.5.9 0 2.1-.6 3.2-1.5 1.6-1.5 2.3-3.5 1.5-4.4-.7-.8-2.2-.5-3.7.5L60 56.8c1.4-1.6 1.7-3.9.6-5.4l2.9-3c.6.5 1.3.8 2.1.9.6 0 1.2-.1 1.7-.3l1.1 2.2c-.2.2-.3.4-.5.7-1.1 1.8-1 3.8.2 4.4 1.2.6 3.1-.5 4.2-2.3 1.4-2 1.3-3.9.1-4.5zm1.4-18.6c-.8 0-1.5.4-2 .9l-2.5-3c.5-.8.8-1.9.8-3-.1-1.1-.5-2.1-1.1-2.8l1.2-1.8c1 .8 2.2 1.1 3 .6 1.2-.7 1.2-2.9 0-4.7-.9-1.4-2.2-2.3-3.3-2.3-.3 0-.7.1-.9.3-1.2.7-1.2 2.9 0 4.7.1.1.1.2.2.3l-1.3 2c-.6-.4-1.4-.6-2.1-.5-2.3.2-3.9 2.4-3.7 4.9.2 2.5 2.2 4.5 4.4 4.3.7-.1 1.4-.3 1.9-.8l2.7 3.2c-.3.7-.5 1.4-.5 2.2 0 2.5 1.5 4.5 3.4 4.5s3.4-2 3.4-4.5c-.2-2.5-1.7-4.5-3.6-4.5zM52.4 42c-1.8-1.8-4.6-2-6.6-.5l-2.9-2.9c.7-.9 1.1-2 1.1-3.3 0-3-2.4-5.4-5.4-5.4-3 0-5.4 2.4-5.4 5.4 0 3 2.4 5.4 5.4 5.4 1.2 0 2.3-.4 3.3-1.1l2.9 2.9c-1.3 1.7-1.3 4.1-.1 5.9l-2.9 2.8c-.9-.6-2-1-3.2-1-2.8 0-5.1 2-5.1 4.5s2.3 4.5 5.1 4.5 5.1-2 5.1-4.5c0-.9-.3-1.7-.8-2.4l2.9-2.8c2 1.6 4.9 1.4 6.7-.4 1.9-1.9 1.9-5.1-.1-7.1z"></path></svg> 